# xmcd
#
# Track frame offsets:
#	150
#	19852
#	42262
#	63857
#	84320
#	103965
#
# Disc length: 1683 seconds
#
# Revision: 1
# Processed by: cddbd v1.5PL3 Copyright (c) Steve Scherf et al.
# Submitted via: CDex 1.50Beta5
#
DISCID=44069106
DTITLE=榎本温子 - Keep on Going
DYEAR=2002
DGENRE=Pop
TTITLE0=Keep on Going
TTITLE1=Take your wings
TTITLE2=Take your wings <Unplugged Version>
TTITLE3=Keep on Going <83 Key's EXITE Remix>
TTITLE4=Keep on Going <Instrumental>
TTITLE5=Take your wings <Instrumental>
EXTD=
EXTT0=
EXTT1=
EXTT2=
EXTT3=
EXTT4=
EXTT5=
PLAYORDER=
